<?xml version="1.0" encoding="UTF-8"?>
<svg width="24"
     height="24"
     version="1.1"
     viewBox="0 0 24 24"
     xml:space="preserve"
     xmlns="http://www.w3.org/2000/svg">
    <path id="train"
        fill="black"
        d="m7.3412 3.0173c-0.20241 0-1.2641 0.058672-2.2617 1.2207-0.98221 1.1431-1.0098 2.2679-1.0098 2.3926v9.9395a1.8072 1.8072 0 0 0 1.8086 1.8086h0.90234l-1.8066 2.709h2.125l0.60352-0.90234h7.1484c-0.48391-0.20896-0.82813-0.69353-0.82812-1.248v-1.2754c-5.24e-4 -0.36071 0.14291-0.70634 0.39844-0.96094l0.056641-0.056641 0.33203-0.20898a1.3559 1.3559 0 0 1 0.55664-2.5762 1.3559 1.3559 0 0 1 0.57031 0.14453v-0.72656h-1.2754v-1.2246h-8.7832v-3.6152h10.842v0.84961h1.8086v-2.6562c9.03e-4 -0.16988-0.030233-1.2959-1.0215-2.4082-1.0446-1.1729-2.1348-1.2051-2.2559-1.2051h-7.9102zm2.1504 1.8066h3.6152v1.8066h-3.6152v-1.8066zm7.166 5.1816a1.2758 1.2758 0 0 0-1.2773 1.2773v1.2754h1.2773v3.5625l-1.7266 1.0898a0.63534 0.63534 0 0 0-0.1875 0.45117v1.2754a0.63789 0.63789 0 0 0 0.63672 0.63672h2.5527v1.9141l0.63672 1.2754 0.63867-1.2754v-1.9141h2.5508a0.63789 0.63789 0 0 0 0.63867-0.63672v-1.2754a0.63534 0.63534 0 0 0-0.1875-0.45117l-1.7266-1.0898v-3.5625h1.2754v-1.2754a1.2758 1.2758 0 0 0-1.2754-1.2773h-3.8262zm-9.4238 3.8535a1.3559 1.3559 0 0 1-0.0019531 2.7109 1.3559 1.3559 0 1 1 0.0019531-2.7109zm7.7227 6.3652 0.58594 0.86328h1.6699v-0.61719l-0.11719-0.17578h-1.7148c-0.14763 0-0.29002-0.025337-0.42383-0.070313z" />
</svg>